:SAMPLES-PER-SECOND 24
:FULLY-SPECIFIED
:DEGREES
562
root  10.1048 36.1582 34.0439 -161.072 -57.8606 175.905
RightUpLeg  -34.7782 -8.42027 -2.7245
RightLeg  56.105 -0.445658 -1.15503
RightFoot  -25.137 -0.0161944 1.27463
RightToes  -2.08645e-008 3.77894e-005 6.81332e-007
Spine  23.1142 1.86062 0.256091
Spine1  -2.23166 3.26237 -9.46729
HEad  -44.3037 -14.0251 7.94608
LeftShoulder1  8.18342 -14.1027 -40.259
LeftArm  8.52609 29.2729 -10.9202
LeftForeArm  137.238 -76.8688 -132.01
LeftHand  -0.49118 -2.66628 7.30028
RightShoulder  4.67621 7.33612 37.1873
RightArm  14.1566 -19.3524 31.0954
RightForeArm  87.1614 80.1216 71.6307
RightHand  -1.25224 6.85939 -12.1547
LeftUpLeg  -41.4688 -13.3938 15.305
LeftLeg  41.3314 -8.33185 -7.40292
LeftFoot  -19.102 -0.801135 -13.4411
LeftToes  1.24767e-006 1.47042e-008 1.32732e-009
563
root  9.09788 35.1589 34.6544 -163.346 -50.0506 176.271
RightUpLeg  -33.4286 4.61528 -7.36646
RightLeg  57.9646 -4.25384 -7.70713
RightFoot  -30.8796 0.830662 6.1079
RightToes  -2.08645e-008 3.77894e-005 6.81332e-007
Spine  22.5056 1.71277 -2.25438
Spine1  -0.0188392 3.2502 -9.61878
HEad  -45.4936 -23.6729 11.6021
LeftShoulder1  9.46312 -14.9455 -44.7443
LeftArm  6.1488 14.6172 -13.3774
LeftForeArm  103.174 -80.3196 -95.0962
LeftHand  -0.64444 -0.904802 11.9647
RightShoulder  4.97781 7.52863 39.0964
RightArm  9.30337 -13.7632 37.0452
RightForeArm  54.1162 74.1416 33.7034
RightHand  -1.75026 8.75187 -14.6834
LeftUpLeg  -40.5347 -11.839 11.119
LeftLeg  50.0715 -1.86819 -1.93649
LeftFoot  -25.3748 -1.3219 -11.8917
LeftToes  1.24767e-006 1.47042e-008 1.32732e-009
564
root  7.8118 35.0231 35.1472 -166.287 -40.536 179.205
RightUpLeg  -32.1236 14.1455 -8.95495
RightLeg  55.532 -5.70766 -9.04973
RightFoot  -31.999 0.731709 5.0911
RightToes  -2.08645e-008 3.77894e-005 6.81332e-007
Spine  19.4227 0.817264 -7.2013
Spine1  0.407451 0.774956 -4.50731
HEad  -44.8788 -26.5383 15.495
LeftShoulder1  9.20095 -14.7662 -43.8656
LeftArm  5.41581 4.14591 -23.1067
LeftForeArm  112.922 -80.4302 -98.9607
LeftHand  -0.684916 -1.7207 11.4964
RightShoulder  5.01534 7.55378 39.3256
RightArm  11.0588 -19.2144 37.0629
RightForeArm  76.5188 78.7195 58.0262
RightHand  -1.18135 8.91175 -9.82685
LeftUpLeg  -37.9485 -10.0505 9.39176
LeftLeg  53.4953 2.39911 3.98254
LeftFoot  -27.1253 -1.52789 -12.1568
LeftToes  1.24767e-006 1.47042e-008 1.32732e-009
565
root  6.11506 36.4611 35.5442 -167.166 -29.6547 -175.604
RightUpLeg  -31.5522 14.4089 -9.61921
RightLeg  43.152 4.082 3.48847
RightFoot  -23.5557 0.353472 4.17726
RightToes  -2.08645e-008 3.77894e-005 6.81332e-007
Spine  15.5826 -1.81587 -10.1968
Spine1  -1.6837 -3.62815 4.52771
HEad  -42.6207 -24.8828 19.024
LeftShoulder1  7.89275 -13.8467 -39.3073
LeftArm  6.87394 -0.541339 -34.8184
LeftForeArm  151.151 -78.2035 -129.708
LeftHand  -0.605393 -4.1733 7.64196
RightShoulder  4.61814 7.29904 36.8058
RightArm  19.1128 -27.8124 29.2717
RightForeArm  143.277 78.1163 127.427
RightHand  -0.999538 9.04245 -8.39481
LeftUpLeg  -32.6907 -5.19535 9.28415
LeftLeg  47.0481 6.55136 7.9489
LeftFoot  -24.678 -1.31441 -12.4132
LeftToes  1.24767e-006 1.47042e-008 1.32732e-009
566
root  4.44693 38.94 35.5606 -167.656 -16.3479 -169.306
RightUpLeg  -28.8657 4.20725 -5.58577
RightLeg  28.9408 17.0931 9.78657
RightFoot  -9.14017 -0.367891 15.804
RightToes  -2.08645e-008 3.77894e-005 6.81332e-007
Spine  13.23 -3.2336 -11.6108
Spine1  -3.36258 -6.31897 14.6099
HEad  -39.4562 -25.1772 22.2053
LeftShoulder1  6.93426 -13.1455 -35.613
LeftArm  10.9594 0.30118 -42.9898
LeftForeArm  165.429 -75.0417 -143.441
LeftHand  -0.457083 -2.65191 6.82025
RightShoulder  4.12354 6.96241 33.5108
RightArm  23.7113 -29.6217 22.4583
RightForeArm  155.446 75.2194 141.129
RightHand  -1.19314 9.12975 -9.88302
LeftUpLeg  -23.2175 0.644894 11.4201
LeftLeg  33.7915 13.8787 10.1575
LeftFoot  -17.2343 -0.630038 -14.177
LeftToes  1.24767e-006 1.47042e-008 1.32732e-009
